<svg version="1.2" baseProfile="tiny" xmlns="http://www.w3.org/2000/svg" viewBox="0 0 288 288" width="288" height="288">
<path fill="#000000" opacity="1.000000" stroke="none" 
	d="
M197.000000,289.000000 
	C131.361618,289.000000 66.223244,289.000000 1.042433,289.000000 
	C1.042433,193.069977 1.042433,97.139931 1.042433,1.104944 
	C96.888268,1.104944 192.776688,1.104944 288.832550,1.104944 
	C288.832550,96.999756 288.832550,192.999863 288.832550,289.000000 
	C258.473419,289.000000 227.986710,289.000000 197.000000,289.000000 
M207.224548,88.320030 
	C207.040207,87.492516 206.855881,86.665009 206.649124,85.111015 
	C205.778000,83.736130 204.906876,82.361237 203.900742,80.406067 
	C203.312927,79.919014 202.725098,79.431961 201.798019,78.317719 
	C193.588394,73.585373 187.084900,74.556763 181.006775,81.615387 
	C155.331619,111.432320 129.664032,141.255905 104.060455,171.134293 
	C97.615723,178.655060 91.418434,186.387848 84.527863,194.499512 
	C84.226440,195.957092 83.925026,197.414658 83.276787,199.398376 
	C83.456184,200.612961 83.635582,201.827560 83.669434,203.554916 
	C83.752815,203.711823 83.836189,203.868713 83.864975,204.761002 
	C88.322716,216.008652 100.658142,218.970245 108.645073,210.043686 
	C123.058235,193.934845 136.886383,177.302567 151.571320,160.636414 
	C168.684845,140.778183 185.819794,120.938339 202.891403,101.044128 
	C205.831497,97.617943 208.185226,93.849403 207.224548,88.320030 
M207.012939,198.344696 
	C206.612930,197.137024 206.212936,195.929352 205.734451,194.010742 
	C204.856430,192.930191 203.978409,191.849655 202.839447,190.152557 
	C200.892532,189.107010 198.945618,188.061478 196.248978,186.632431 
	C195.786880,186.466766 195.325272,186.157639 194.862610,186.156097 
	C176.772339,186.095398 158.681946,186.043304 140.591705,186.077713 
	C139.572342,186.079651 138.223526,186.535049 137.586578,187.266083 
	C130.630264,195.249786 123.761871,203.310730 116.931213,211.402695 
	C115.664825,212.902954 114.584641,214.663376 118.727921,215.200699 
	C143.044357,215.239456 167.360779,215.285507 191.677231,215.299271 
	C193.167969,215.300125 194.687057,215.184235 196.144928,214.887070 
	C203.510513,213.385773 208.052536,206.680313 207.012939,198.344696 
M176.339310,76.505173 
	C174.896790,76.145454 173.454636,75.474243 172.011673,75.472488 
	C148.387970,75.443741 124.764137,75.493980 101.140381,75.546326 
	C99.148117,75.550743 97.129684,75.518082 95.168724,75.808540 
	C87.308029,76.972862 82.448471,84.013779 83.671371,92.811607 
	C83.894455,93.512955 84.117546,94.214310 84.286781,95.602043 
	C87.312599,101.690552 92.254120,104.783974 99.023575,104.809563 
	C115.634453,104.872345 132.246124,104.930756 148.855865,104.794380 
	C150.578262,104.780243 152.814209,103.907806 153.921677,102.649887 
	C161.366821,94.193352 168.571243,85.524895 176.339310,76.505173 
z"/>
<path fill="#DEDEDF" opacity="1.000000" stroke="none" 
	d="
M83.919571,204.025604 
	C83.836189,203.868713 83.752815,203.711823 84.062119,203.085938 
	C96.336464,200.319656 102.064140,190.062683 109.707054,182.537140 
	C119.701050,172.696609 128.746918,161.896484 138.306793,151.607788 
	C139.598816,150.217270 141.447495,149.292206 143.146469,148.345535 
	C144.996552,147.314667 147.444824,146.962936 148.816849,145.532791 
	C157.532028,136.448471 165.977325,127.106110 174.599121,117.931084 
	C181.976608,110.080215 189.608002,102.463356 196.839066,94.482063 
	C199.337372,91.724571 200.968887,88.181770 202.997650,84.631409 
	C203.344559,83.172203 203.690155,82.079269 204.035751,80.986343 
	C204.906876,82.361237 205.778000,83.736130 206.303757,85.620651 
	C205.362976,87.512413 204.767578,88.894554 204.177856,90.569809 
	C204.153122,91.252502 204.122696,91.642097 203.736252,92.059128 
	C202.927597,92.283348 202.334579,92.358238 202.042633,92.694519 
	C191.603256,104.719276 181.185226,116.762581 170.778641,128.815750 
	C158.422470,143.126999 146.078949,157.449173 133.731094,171.767609 
	C125.499275,181.313126 117.268562,190.859604 109.039200,200.407242 
	C105.590691,204.408142 101.744484,207.643311 96.118195,208.102844 
	C95.026749,208.191971 94.026566,209.398392 92.638657,210.040375 
	C89.501869,208.002747 86.710724,206.014175 83.919571,204.025604 
z"/>
<path fill="#E5E5E5" opacity="1.000000" stroke="none" 
	d="
M84.340637,94.915665 
	C84.117546,94.214310 83.894455,93.512955 84.035721,92.213501 
	C89.320015,89.083702 93.997299,85.561119 99.223785,84.281212 
	C105.215019,82.814026 111.690010,83.237770 117.961067,83.016113 
	C129.535248,82.607010 141.129089,82.576431 152.683929,81.878380 
	C157.847031,81.566467 162.935654,80.021561 167.924713,79.324097 
	C166.571945,80.771851 165.352539,81.931740 163.775604,83.095093 
	C160.916565,85.451691 158.508606,87.915459 155.889694,90.129700 
	C152.673508,92.848930 149.255005,97.626465 145.969177,97.588615 
	C126.297241,97.361969 106.500771,100.239510 86.679367,95.923798 
	C85.724648,95.508293 85.032639,95.211983 84.340637,94.915665 
z"/>
<path fill="#EDEDEC" opacity="1.000000" stroke="none" 
	d="
M85.107422,194.023193 
	C91.418434,186.387848 97.615723,178.655060 104.060455,171.134293 
	C129.664032,141.255905 155.331619,111.432320 181.006775,81.615387 
	C187.084900,74.556763 193.588394,73.585373 201.643127,78.770248 
	C200.048523,80.039490 198.399811,81.782097 197.205338,81.512451 
	C192.066544,80.352425 189.520111,83.908333 186.786667,86.808960 
	C181.218063,92.718178 176.030151,98.984535 170.513535,104.944679 
	C160.489090,115.775063 150.167496,126.334343 140.280548,137.287155 
	C124.173416,155.130676 108.203957,173.102661 92.475792,191.279495 
	C90.158112,193.958008 88.279770,194.998199 85.107422,194.023193 
z"/>
<path fill="#E2E3E3" opacity="1.000000" stroke="none" 
	d="
M202.996338,84.997681 
	C200.968887,88.181770 199.337372,91.724571 196.839066,94.482063 
	C189.608002,102.463356 181.976608,110.080215 174.599121,117.931084 
	C165.977325,127.106110 157.532028,136.448471 148.816849,145.532791 
	C147.444824,146.962936 144.996552,147.314667 143.146469,148.345535 
	C141.447495,149.292206 139.598816,150.217270 138.306793,151.607788 
	C128.746918,161.896484 119.701050,172.696609 109.707054,182.537140 
	C102.064140,190.062683 96.336464,200.319656 84.134888,202.829559 
	C83.635582,201.827560 83.456184,200.612961 83.885010,199.168091 
	C91.588753,200.149170 94.375000,194.168015 97.979050,190.275909 
	C113.075844,173.972656 127.694916,157.228012 142.717377,140.854599 
	C154.169113,128.373062 165.992798,116.233414 177.596954,103.890862 
	C184.947083,96.073067 191.657028,87.435402 202.996338,84.997681 
z"/>
<path fill="#DDDDDD" opacity="1.000000" stroke="none" 
	d="
M203.100388,190.769104 
	C203.978409,191.849655 204.856430,192.930191 205.411316,194.538406 
	C204.396301,196.530914 203.758133,198.024048 203.003540,199.455841 
	C199.088806,206.883911 192.208984,208.865875 184.616776,208.948471 
	C169.181900,209.116379 153.742523,208.906174 138.309204,209.135162 
	C136.522720,209.161682 134.762848,210.982376 132.548294,211.994705 
	C129.746597,212.030991 127.387245,212.043793 125.000053,211.806915 
	C124.957451,211.390457 124.942696,211.223633 125.150406,210.780182 
	C131.016220,207.140503 136.597137,203.665192 142.335571,200.473083 
	C144.444153,199.300125 146.886444,198.245468 149.242706,198.080154 
	C161.516953,197.218948 173.811371,196.638702 186.101868,196.022217 
	C188.078552,195.923065 190.105988,195.920929 192.049393,196.241333 
	C198.282303,197.268982 200.113083,196.429520 203.100388,190.769104 
z"/>
<path fill="#E6E6E6" opacity="1.000000" stroke="none" 
	d="
M202.997650,84.631409 
	C191.657028,87.435402 184.947083,96.073067 177.596954,103.890862 
	C165.992798,116.233414 154.169113,128.373062 142.717377,140.854599 
	C127.694916,157.228012 113.075844,173.972656 97.979050,190.275909 
	C94.375000,194.168015 91.588753,200.149170 84.058426,198.905029 
	C83.925026,197.414658 84.226440,195.957092 84.817642,194.261353 
	C88.279770,194.998199 90.158112,193.958008 92.475792,191.279495 
	C108.203957,173.102661 124.173416,155.130676 140.280548,137.287155 
	C150.167496,126.334343 160.489090,115.775063 170.513535,104.944679 
	C176.030151,98.984535 181.218063,92.718178 186.786667,86.808960 
	C189.520111,83.908333 192.066544,80.352425 197.205338,81.512451 
	C198.399811,81.782097 200.048523,80.039490 201.812744,79.083832 
	C202.725098,79.431961 203.312927,79.919014 203.968246,80.696205 
	C203.690155,82.079269 203.344559,83.172203 202.997650,84.631409 
z"/>
<path fill="#F1F1F1" opacity="1.000000" stroke="none" 
	d="
M168.058075,79.036224 
	C162.935654,80.021561 157.847031,81.566467 152.683929,81.878380 
	C141.129089,82.576431 129.535248,82.607010 117.961067,83.016113 
	C111.690010,83.237770 105.215019,82.814026 99.223785,84.281212 
	C93.997299,85.561119 89.320015,89.083702 84.110886,91.850014 
	C82.448471,84.013779 87.308029,76.972862 95.168724,75.808540 
	C97.129684,75.518082 99.148117,75.550743 101.140381,75.546326 
	C124.764137,75.493980 148.387970,75.443741 172.011673,75.472488 
	C173.454636,75.474243 174.896790,76.145454 175.709625,76.714096 
	C172.739304,77.627419 170.398697,78.331825 168.058075,79.036224 
z"/>
<path fill="#E5E5E5" opacity="1.000000" stroke="none" 
	d="
M202.969910,190.460831 
	C200.113083,196.429520 198.282303,197.268982 192.049393,196.241333 
	C190.105988,195.920929 188.078552,195.923065 186.101868,196.022217 
	C173.811371,196.638702 161.516953,197.218948 149.242706,198.080154 
	C146.886444,198.245468 144.444153,199.300125 142.335571,200.473083 
	C136.597137,203.665192 131.016220,207.140503 124.848038,210.713226 
	C124.665207,209.665924 124.626480,208.052505 125.413368,207.212082 
	C129.380234,202.975235 133.291824,198.606873 137.775726,194.965454 
	C140.252426,192.954086 143.788666,191.257980 146.893112,191.177032 
	C161.815796,190.787949 176.754135,190.979538 191.686813,191.011124 
	C194.539566,191.017151 197.206085,190.982819 196.998703,187.015945 
	C198.945618,188.061478 200.892532,189.107010 202.969910,190.460831 
z"/>
<path fill="#F1F1F1" opacity="1.000000" stroke="none" 
	d="
M196.623840,186.824188 
	C197.206085,190.982819 194.539566,191.017151 191.686813,191.011124 
	C176.754135,190.979538 161.815796,190.787949 146.893112,191.177032 
	C143.788666,191.257980 140.252426,192.954086 137.775726,194.965454 
	C133.291824,198.606873 129.380234,202.975235 125.413368,207.212082 
	C124.626480,208.052505 124.665207,209.665924 124.625565,210.989838 
	C124.942696,211.223633 124.957451,211.390457 124.732040,212.037140 
	C122.335258,213.280899 120.178642,214.044800 118.022018,214.808701 
	C114.584641,214.663376 115.664825,212.902954 116.931213,211.402695 
	C123.761871,203.310730 130.630264,195.249786 137.586578,187.266083 
	C138.223526,186.535049 139.572342,186.079651 140.591705,186.077713 
	C158.681946,186.043304 176.772339,186.095398 194.862610,186.156097 
	C195.325272,186.157639 195.786880,186.466766 196.623840,186.824188 
z"/>
<path fill="#B6B6B6" opacity="1.000000" stroke="none" 
	d="
M167.924713,79.324097 
	C170.398697,78.331825 172.739304,77.627419 175.466797,76.924057 
	C168.571243,85.524895 161.366821,94.193352 153.921677,102.649887 
	C152.814209,103.907806 150.578262,104.780243 148.855865,104.794380 
	C132.246124,104.930756 115.634453,104.872345 99.023575,104.809563 
	C92.254120,104.783974 87.312599,101.690552 84.313705,95.258850 
	C85.032639,95.211983 85.724648,95.508293 86.844070,96.232864 
	C90.998962,98.127960 94.692451,100.749512 98.459854,100.860443 
	C114.225334,101.324615 130.013290,101.077194 145.792084,100.963005 
	C147.498672,100.950661 149.831070,100.664345 150.795425,99.562141 
	C155.443893,94.249214 159.722992,88.613083 164.133148,83.091629 
	C165.352539,81.931740 166.571945,80.771851 167.924713,79.324097 
z"/>
<path fill="#A4A4A4" opacity="1.000000" stroke="none" 
	d="
M118.374969,215.004700 
	C120.178642,214.044800 122.335258,213.280899 124.759888,212.286789 
	C127.387245,212.043793 129.746597,212.030991 133.016998,212.028122 
	C153.164566,212.036331 172.401093,212.047379 191.637589,212.025818 
	C198.181717,212.018478 202.448639,209.014084 204.938889,202.895325 
	C205.488419,201.545044 206.293579,200.298828 206.981033,199.004684 
	C208.052536,206.680313 203.510513,213.385773 196.144928,214.887070 
	C194.687057,215.184235 193.167969,215.300125 191.677231,215.299271 
	C167.360779,215.285507 143.044357,215.239456 118.374969,215.004700 
z"/>
<path fill="#B6B6B6" opacity="1.000000" stroke="none" 
	d="
M83.892273,204.393311 
	C86.710724,206.014175 89.501869,208.002747 92.928497,210.298874 
	C101.532463,212.519592 106.461342,207.730148 110.993935,202.462067 
	C122.239914,189.391296 133.298065,176.158768 144.563232,163.104752 
	C147.099869,160.165314 150.173553,157.689331 152.959961,155.351028 
	C152.266235,157.431000 151.612534,159.159943 150.958847,160.888885 
	C136.886383,177.302567 123.058235,193.934845 108.645073,210.043686 
	C100.658142,218.970245 88.322716,216.008652 83.892273,204.393311 
z"/>
<path fill="#CFD0D0" opacity="1.000000" stroke="none" 
	d="
M206.996979,198.674683 
	C206.293579,200.298828 205.488419,201.545044 204.938889,202.895325 
	C202.448639,209.014084 198.181717,212.018478 191.637589,212.025818 
	C172.401093,212.047379 153.164566,212.036331 133.459335,212.004639 
	C134.762848,210.982376 136.522720,209.161682 138.309204,209.135162 
	C153.742523,208.906174 169.181900,209.116379 184.616776,208.948471 
	C192.208984,208.865875 199.088806,206.883911 203.003540,199.455841 
	C203.758133,198.024048 204.396301,196.530914 205.450546,194.893875 
	C206.212936,195.929352 206.612930,197.137024 206.996979,198.674683 
z"/>
<path fill="#A9A9A9" opacity="1.000000" stroke="none" 
	d="
M151.265076,160.762650 
	C151.612534,159.159943 152.266235,157.431000 153.195724,155.160645 
	C154.009140,153.757553 154.546768,152.895874 155.412750,151.983215 
	C156.495895,150.957947 157.250687,149.983643 158.156372,148.721924 
	C159.232544,147.300613 160.157806,146.166733 161.387772,144.974670 
	C162.135071,144.290253 162.577698,143.664017 163.209702,142.766449 
	C164.957687,140.673401 166.516266,138.851685 168.380768,136.971909 
	C169.128296,136.284348 169.569916,135.654831 170.265594,134.807556 
	C175.706619,128.403778 180.893555,122.217766 186.385010,115.972130 
	C187.130844,115.284950 187.572128,114.657402 188.260391,113.824234 
	C189.364975,112.423279 190.222580,111.227951 191.408600,109.980453 
	C192.491348,108.952187 193.245682,107.976097 194.284561,106.815018 
	C197.743500,101.763924 200.917892,96.897804 204.092270,92.031685 
	C204.122696,91.642097 204.153122,91.252502 204.489655,90.474350 
	C205.583679,89.709854 206.371582,89.333923 207.159500,88.957993 
	C208.185226,93.849403 205.831497,97.617943 202.891403,101.044128 
	C185.819794,120.938339 168.684845,140.778183 151.265076,160.762650 
z"/>
<path fill="#D4D4D5" opacity="1.000000" stroke="none" 
	d="
M207.192017,88.639008 
	C206.371582,89.333923 205.583679,89.709854 204.483978,90.181244 
	C204.767578,88.894554 205.362976,87.512413 206.314972,85.983887 
	C206.855881,86.665009 207.040207,87.492516 207.192017,88.639008 
z"/>
<path fill="#D4D4D5" opacity="1.000000" stroke="none" 
	d="
M155.084412,152.034195 
	C154.546768,152.895874 154.009140,153.757553 153.235748,154.809631 
	C150.173553,157.689331 147.099869,160.165314 144.563232,163.104752 
	C133.298065,176.158768 122.239914,189.391296 110.993935,202.462067 
	C106.461342,207.730148 101.532463,212.519592 93.274124,210.347931 
	C94.026566,209.398392 95.026749,208.191971 96.118195,208.102844 
	C101.744484,207.643311 105.590691,204.408142 109.039200,200.407242 
	C117.268562,190.859604 125.499275,181.313126 133.731094,171.767609 
	C146.078949,157.449173 158.422470,143.126999 170.778641,128.815750 
	C181.185226,116.762581 191.603256,104.719276 202.042633,92.694519 
	C202.334579,92.358238 202.927597,92.283348 203.736252,92.059128 
	C200.917892,96.897804 197.743500,101.763924 193.950562,106.862473 
	C192.581375,108.074135 191.830780,109.053383 191.080185,110.032631 
	C190.222580,111.227951 189.364975,112.423279 187.946060,113.869240 
	C186.949982,114.757164 186.515228,115.394455 186.080475,116.031754 
	C180.893555,122.217766 175.706619,128.403778 169.951355,134.853439 
	C168.946960,135.754715 168.510910,136.392334 168.074860,137.029953 
	C166.516266,138.851685 164.957687,140.673401 162.894882,142.809937 
	C161.954803,143.760788 161.518936,144.396820 161.083084,145.032867 
	C160.157806,146.166733 159.232544,147.300613 157.821167,148.765030 
	C156.584869,150.075119 155.834641,151.054657 155.084412,152.034195 
z"/>
<path fill="#D8D9D9" opacity="1.000000" stroke="none" 
	d="
M163.775604,83.095100 
	C159.722992,88.613083 155.443893,94.249214 150.795425,99.562141 
	C149.831070,100.664345 147.498672,100.950661 145.792084,100.963005 
	C130.013290,101.077194 114.225334,101.324615 98.459854,100.860443 
	C94.692451,100.749512 90.998962,98.127960 87.106781,96.352066 
	C106.500771,100.239510 126.297241,97.361969 145.969177,97.588615 
	C149.255005,97.626465 152.673508,92.848930 155.889694,90.129700 
	C158.508606,87.915459 160.916565,85.451691 163.775604,83.095100 
z"/>
<path fill="#B6B6B6" opacity="1.000000" stroke="none" 
	d="
M191.408600,109.980453 
	C191.830780,109.053383 192.581375,108.074135 193.665985,107.047447 
	C193.245682,107.976097 192.491348,108.952187 191.408600,109.980453 
z"/>
<path fill="#B6B6B6" opacity="1.000000" stroke="none" 
	d="
M155.412750,151.983215 
	C155.834641,151.054657 156.584869,150.075119 157.670288,149.052460 
	C157.250687,149.983643 156.495895,150.957947 155.412750,151.983215 
z"/>
<path fill="#B6B6B6" opacity="1.000000" stroke="none" 
	d="
M186.385010,115.972122 
	C186.515228,115.394455 186.949982,114.757164 187.699081,114.074860 
	C187.572128,114.657402 187.130844,115.284950 186.385010,115.972122 
z"/>
<path fill="#B6B6B6" opacity="1.000000" stroke="none" 
	d="
M168.380768,136.971909 
	C168.510910,136.392334 168.946960,135.754715 169.697266,135.071198 
	C169.569916,135.654831 169.128296,136.284348 168.380768,136.971909 
z"/>
<path fill="#B6B6B6" opacity="1.000000" stroke="none" 
	d="
M161.387772,144.974670 
	C161.518936,144.396820 161.954803,143.760788 162.705490,143.081268 
	C162.577698,143.664017 162.135071,144.290253 161.387772,144.974670 
z"/>
</svg>